# xmcd CD database file
#
# Track frame offsets:
#	150
#	21010
#	45940
#	65160
#	84695
#	99635
#	114140
#	133665
#	154725
#	172120
#	191260
#	208365
#	219855
#	233610
#
# Disc length: 3329 seconds
#
# Revision: 0
# Processed by: cddbd v1.5.1PL0 Copyright (c) Steve Scherf et al.
# Submitted via: CDex 1.51
#
DISCID=b90cff0e
DTITLE=Bob Wiber - Dany Doriz - Memories of you - Lionel and Benny
DYEAR=1995
DGENRE=Jazz
TTITLE0=Avalon
TTITLE1=Air mail special (Good enough to keep)
TTITLE2=Memories of you
TTITLE3=AC-DC current
TTITLE4=After you've gone
TTITLE5=My melancholy baby
TTITLE6=Soft wind
TTITLE7=Just one of those things
TTITLE8=Moonglow
TTITLE9=Stompin' at the Savoy
TTITLE10=Seven come eleven
TTITLE11=Smiles
TTITLE12=Pick-a-rib (part 1)
TTITLE13=Pick-a-rib (part 2)
EXTD=YEAR: 1995
EXTT0=
EXTT1=
EXTT2=
EXTT3=
EXTT4=
EXTT5=
EXTT6=
EXTT7=
EXTT8=
EXTT9=
EXTT10=
EXTT11=
EXTT12=
EXTT13=
PLAYORDER=
